<svg xmlns="http://www.w3.org/2000/svg" xmlns:xlink="http://www.w3.org/1999/xlink" version="1.1" x="0px" y="0px" viewBox="0 0 1133.9 1063" style="enable-background:new 0 0 1133.9 850.4;" xml:space="preserve"><path d="M559.3,493.6c0,1.3,0.1,2.4,0.1,3.5c0-1.1,0-2.2,0.1-3.3C559.4,493.7,559.4,493.6,559.3,493.6z"/><path d="M1089.4,586.9c-0.3-0.6-32.3-60.4-44.2-95.3c-12-35.2-23.5-57-56-85.4c-12.4-10.8-24.4-23.8-37.1-37.6  c-17.7-19.2-37.9-41-63.3-61.3c-18-14.4-33.6-32.7-47.3-48.9c-19.7-23.2-36.8-43.2-56.5-48.4c-15.9-4.2-45.1-18.8-70.9-31.8  c-26.5-13.3-43.1-21.5-51.5-23.1c-19.9-3.9-27.5-0.1-41.5,14.2c-3.8,3.9-8.8,8.6-14,13.5c-12.2,11.4-24.7,23.1-29.5,31.4  c-0.7,1.2-1.3,2.3-2,3.3c-4.6,7.6-7.8,13.9-8.7,28.1c-0.9-14.2-4.1-20.5-8.7-28.1c-0.6-1.1-1.3-2.1-2-3.3  c-4.8-8.3-17.3-20.1-29.5-31.4c-5.3-4.9-10.2-9.6-14-13.5c-14-14.3-21.5-18.1-41.5-14.2c-8.4,1.6-25,9.9-51.5,23.1  c-25.8,12.9-55,27.6-70.9,31.8c-19.8,5.2-36.8,25.2-56.5,48.4c-13.8,16.2-29.4,34.5-47.3,48.9c-25.4,20.4-45.5,42.1-63.3,61.3  c-12.7,13.8-24.7,26.8-37.1,37.6c-32.5,28.5-44,50.2-56,85.4c-11.9,34.9-43.9,94.7-44.2,95.3c-1,1.8-1.2,4-0.5,6  c5.8,17,27.6,39.6,64.7,67.1c27,20,52.8,35.5,53.1,35.7c1.2,0.7,2.5,1.1,3.9,1.1c2.1,0,4.1-0.8,5.5-2.4c7.2-7.9,16.4-29.5,32-67.1  c12.2-29.4,26.1-62.8,39.9-89c20-37.8,30.4-42.1,34-42.2c33.8-1.2,63.3-11.9,71-14.9c12.5,1.2,42,0.4,68.2-0.4  c15.3-0.5,28.5-0.9,35-0.7c21.5,0.4,50.1,4.4,81,32.2c8.3,7.4,20.5,16.7,31.3,11.4c1.2-0.6,2.3-1.3,3.3-2.2c1,0.8,2.1,1.6,3.3,2.2  c10.8,5.3,23-4,31.3-11.4c31-27.7,59.6-31.8,81-32.2c6.6-0.1,19.8,0.3,35,0.7c26.2,0.8,55.7,1.7,68.2,0.4c7.7,3,37.2,13.7,71,14.9  c3.6,0.1,14,4.5,34,42.2c13.9,26.2,27.7,59.6,39.9,89c15.6,37.5,24.8,59.2,32,67.1c1.5,1.6,3.5,2.4,5.5,2.4c1.3,0,2.7-0.3,3.9-1.1  c0.3-0.2,26-15.7,53-35.7c37.1-27.5,58.9-50,64.7-67.1C1090.6,590.9,1090.4,588.8,1089.4,586.9L1089.4,586.9z M542.3,500.9  c-5.4-4.8-10.7-9-16-12.6c3.9-3.1,5.9-6.2,6.8-9c6.5,4.6,19,17.5,22.9,30.6C554.3,509.5,550.1,507.8,542.3,500.9z M559.4,497.1  c0-1.1,0-2.2-0.1-3.5c-8.9-14.5-23-26.6-29.8-26c-3.1,0.3-6.1,2.9-5.8,7.3c0.2,2.8-3.3,5.6-6.7,7.5c-25.5-14.7-48.7-17.2-65.5-17.5  c-7-0.1-20.3,0.3-35.8,0.7c-25.9,0.8-58,1.8-67.7,0.3c-1.3-0.2-2.7,0-4,0.5c-0.3,0.1-31.9,13.2-67.6,14.5  c-27.3,1-53.4,58.8-87.2,140.5c-9.6,23-19.4,46.7-25.8,57.7c-29.9-18.7-91.7-61.2-104.2-88.2c6.9-13,32.7-62.6,43.6-94.4  c11.4-33.3,21.6-52.6,51.7-79c13-11.4,25.2-24.6,38.2-38.7c18.2-19.7,37.1-40.1,61.6-59.8c19.1-15.3,35.2-34.2,49.4-50.9  c18.1-21.2,33.7-39.6,48.9-43.6c17.4-4.6,47.4-19.6,73.8-32.9c20.1-10.1,40.8-20.5,47.6-21.8c14.2-2.8,17-1.2,27.9,10  c4.1,4.1,9.1,8.9,14.5,13.9c10.3,9.6,23.1,21.6,26.7,27.9c0.7,1.3,1.5,2.5,2.1,3.6c4.6,7.6,7.6,12.6,6.6,37.2  c-0.4,10.4,0,19.4,0.4,26.6c0.3,5.7,0.7,12.6,0,15.3c-4.1,0.1-9.7-0.6-13.7-4.7c-4.5-4.5-6.5-12.8-5.9-23.9c0-0.3,0-0.6,0-0.9  c-0.2-3.7,0.1-10.1,1.7-14.8c3.8-3.8,5.3-7.7,5.5-8.3c1.1-3.1,0-6.6-2.6-8.5c-2.7-1.9-6.3-1.9-8.9,0c-2.6,1.9-4.6,4.5-6.1,7.4  c-0.3,0.2-0.6,0.3-0.9,0.5c-3.7,1.7-9.2,1.3-15.8-1.2c-7.3-2.8-12.3-7-14.8-12.5c0-0.1-0.1-0.1-0.1-0.2c-3.4-7.5-1.6-15.5-1-17.8  c1.1-4-1.3-8.1-5.3-9.2c-4-1.1-8.1,1.3-9.2,5.3c-1.1,4-2.9,13.5,0.2,23.7L464.8,253c-9.8,12.8-27.4,8.4-28.1,8.2  c-3.4-0.9-7.1,0.7-8.7,3.9c-1.6,3.2-0.7,7.1,2.1,9.3c0,0,3.1,2.7,3.4,6.4c0.2,2.8-1.2,6-4.3,9.4c-12.1,13.3-34.7,38-16,74.3  c3.4,6.6,5.4,12.4,7.1,17.5c7,20.7,12.9,32,61.8,43.6c30.2,7.2,49.1,22.4,59.7,33.9c11.8,12.8,16.7,24.8,17.1,27.6  c0,0.5,0.1,1.1,0.1,1.8c0.1,1.7,0.2,3.3,0.2,4.7c0,0.1,0.1,0.1,0.1,0.2C559.4,494.8,559.4,495.9,559.4,497.1L559.4,497.1z   M566.9,468.2c-3.2-5.6-7.6-11.8-13.2-18c-12-13.4-33.6-31.1-68.1-39.3c-20.8-5-33.8-9.9-40.7-15.5c-5.8-4.7-7.6-10.1-10.4-18.3  c-1.9-5.6-4.1-12-8-19.6c-12.9-24.9-0.9-41.4,13.7-57.3c6-6.6,8.8-13.6,8.2-20.7c-0.1-0.9-0.2-1.7-0.4-2.5c9-0.6,20.2-4,28.6-14.8  l6.8-8.9c4.3,4.5,9.9,8.1,16.7,10.7c6.4,2.5,12.4,3.5,17.7,3.2c-0.3,3.8-0.2,6.9-0.2,8.2c-0.8,15.4,2.7,27.1,10.2,34.8  c6.2,6.3,15.2,9.6,25.3,9.1c5.2-0.2,8.3-2.5,10-4.4c1.8-1.9,2.8-4.2,3.5-6.9c0.7,2.7,1.8,4.9,3.5,6.9c1.7,1.9,4.8,4.2,10,4.4  c10.1,0.4,19.1-2.8,25.3-9.1c7.6-7.7,11-19.4,10.2-34.8c0.1-1.3,0.2-4.4-0.2-8.2c5.4,0.3,11.3-0.7,17.7-3.2  c6.8-2.6,12.4-6.2,16.7-10.7l6.8,8.9c8.3,10.8,19.5,14.1,28.6,14.8c-0.2,0.8-0.3,1.7-0.4,2.5c-0.6,7.1,2.2,14.1,8.2,20.7  c14.6,16,26.6,32.4,13.7,57.3c-3.9,7.6-6.1,14-8,19.6c-2.8,8.2-4.6,13.6-10.4,18.3c-6.9,5.6-19.8,10.5-40.7,15.5  c-34.5,8.2-56.1,25.9-68.1,39.3C574.5,456.4,570.2,462.7,566.9,468.2z M591.5,500.9c-7.7,6.9-11.9,8.6-13.7,9  c3.9-13.1,16.4-26,22.9-30.6c0.9,2.8,2.8,6,6.8,9C602.2,491.9,596.9,496.1,591.5,500.9z M970.4,679.1c-6.4-11-16.2-34.7-25.8-57.7  c-33.9-81.7-60-139.5-87.2-140.5c-35.7-1.3-67.3-14.3-67.6-14.5c-0.9-0.4-1.9-0.6-2.9-0.6c-0.4,0-0.7,0-1.1,0.1  c-9.7,1.4-41.9,0.4-67.7-0.3c-15.5-0.5-28.8-0.9-35.8-0.7c-16.8,0.3-40,2.8-65.5,17.5c-3.4-1.9-6.9-4.7-6.7-7.5  c0.3-4.4-2.6-7-5.8-7.3c-6.9-0.7-21,11.5-29.8,26c0,1.2-0.1,2.4-0.1,3.5c0-1.1,0-2.2-0.1-3.3c0-0.1,0.1-0.1,0.1-0.2  c0-1.4,0.1-3,0.2-4.7c0-0.7,0.1-1.3,0.1-1.8c0.4-2.8,5.4-14.8,17.1-27.6c10.5-11.5,29.5-26.7,59.7-33.9  c48.9-11.6,54.8-22.9,61.8-43.6c1.7-5.1,3.7-11,7.1-17.5c18.8-36.3-3.8-61-16-74.3c-3.1-3.4-4.5-6.5-4.3-9.3  c0.3-3.8,3.4-6.5,3.4-6.5c2.8-2.2,3.7-6,2.1-9.2c-1.6-3.2-5.2-4.8-8.6-3.9c-0.7,0.2-18.3,4.6-28.1-8.2l-10.6-13.8  c3.1-10.2,1.3-19.7,0.2-23.7c-1.1-4-5.2-6.4-9.2-5.3s-6.4,5.2-5.3,9.2c0.6,2.3,2.3,10.4-1,17.8c0,0.1-0.1,0.1-0.1,0.2  c-2.6,5.5-7.5,9.7-14.8,12.5c-8.7,3.3-13.8,2.4-16.7,0.7c-1.5-2.9-3.5-5.4-6.1-7.4c-2.7-2-6.3-2-8.9,0c-2.7,1.9-3.7,5.4-2.6,8.5  c0.2,0.6,1.7,4.5,5.5,8.3c1.5,4.4,2,10.6,1.7,14.8c0,0.3,0,0.6,0,0.9c0.6,11.1-1.4,19.4-5.9,23.9c-4,4.1-9.6,4.8-13.7,4.7  c-0.7-2.6-0.3-9.6,0-15.3c0.4-7.2,0.9-16.2,0.4-26.6c-1-24.6,2-29.6,6.6-37.2c0.7-1.1,1.4-2.3,2.2-3.6c3.6-6.4,16.4-18.3,26.7-27.9  c5.4-5,10.5-9.8,14.5-13.9c11-11.2,13.7-12.8,27.9-10c6.8,1.3,27.5,11.7,47.6,21.8c26.4,13.3,56.4,28.3,73.8,32.9  c15.2,4,30.8,22.3,48.9,43.6c14.2,16.7,30.3,35.6,49.4,50.9c24.5,19.7,43.4,40.1,61.6,59.8c13,14.1,25.3,27.4,38.2,38.7  c30.1,26.4,40.3,45.7,51.7,79c10.9,31.8,36.7,81.5,43.6,94.4C1062.1,617.9,1000.3,660.5,970.4,679.1z"/><path d="M574.4,493.8c0,1,0.1,2.1,0.1,3.3c0-1.1,0-2.2,0.1-3.5C574.5,493.6,574.4,493.7,574.4,493.8L574.4,493.8z"/><path d="M559.5,493.8c0,1-0.1,2.1-0.1,3.3c0-1.1,0-2.2-0.1-3.5C559.4,493.6,559.4,493.7,559.5,493.8z"/><path d="M574.5,493.6c0,1.2-0.1,2.4-0.1,3.5c0-1.1,0-2.2-0.1-3.3C574.4,493.7,574.5,493.6,574.5,493.6L574.5,493.6z"/><text x="0" y="865.4" fill="#000000" font-size="5px" font-weight="bold" font-family="'Helvetica Neue', Helvetica, Arial-Unicode, Arial, Sans-serif">Created by Sofía Trujillo Quesada</text><text x="0" y="870.4" fill="#000000" font-size="5px" font-weight="bold" font-family="'Helvetica Neue', Helvetica, Arial-Unicode, Arial, Sans-serif">from the Noun Project</text></svg>